<svg aria-hidden="true" style="width:0;height:0;position:absolute;overflow:hidden" xmlns="http://www.w3.org/2000/svg"><defs><symbol id="icon-arrow-left" viewBox="0 0 32 32"><path fill="#f8f8f8" style="fill:var(--color1,#f8f8f8)" opacity=".5" d="M14.133 16.947c-.244-.241-.395-.576-.395-.947s.151-.705.395-.947l6.12-6.107a1.333 1.333 0 0 0-.94-2.281c-.367 0-.699.148-.94.388l-6.12 6.12c-.723.724-1.17 1.723-1.17 2.827s.447 2.103 1.17 2.827l6.12 6.12a1.334 1.334 0 1 0 1.88-1.894l-6.12-6.107z"/></symbol><symbol id="icon-arrow-right" viewBox="0 0 32 32"><path d="M17.867 16.947c.244-.241.395-.576.395-.947s-.151-.705-.395-.947l-6.12-6.107a1.333 1.333 0 0 1 .94-2.281c.367 0 .699.148.94.388l6.12 6.12c.723.724 1.17 1.723 1.17 2.827s-.447 2.103-1.17 2.827l-6.12 6.12a1.334 1.334 0 1 1-1.88-1.894l6.12-6.107z"/></symbol><symbol id="icon-arow-right" viewBox="0 0 32 32"><path d="M17.867 16.947a1.328 1.328 0 0 0 .001-1.894l-6.12-6.107a1.333 1.333 0 0 1 .94-2.281c.367 0 .699.148.94.388l6.12 6.12c.723.724 1.17 1.723 1.17 2.827s-.447 2.103-1.17 2.827l-6.12 6.12a1.334 1.334 0 1 1-1.88-1.894l6.12-6.107z"/></symbol><symbol id="icon-arrow-left1" viewBox="0 0 32 32"><path fill="#f8f8f8" style="fill:var(--color1,#f8f8f8)" opacity=".5" d="M14.133 16.947c-.244-.241-.395-.576-.395-.947s.151-.705.395-.947l6.12-6.107a1.333 1.333 0 0 0-.94-2.281c-.367 0-.699.148-.94.388l-6.12 6.12c-.723.724-1.17 1.723-1.17 2.827s.447 2.103 1.17 2.827l6.12 6.12a1.334 1.334 0 1 0 1.88-1.894l-6.12-6.107z"/></symbol><symbol id="icon-basket-default" viewBox="0 0 32 32"><path stroke-linejoin="round" stroke-linecap="round" stroke-width="2.667" d="M12 29.333a1.333 1.333 0 0 0 0-2.666 1.333 1.333 0 0 0 0 2.666zm14.667 0a1.333 1.333 0 0 0 0-2.666 1.333 1.333 0 0 0 0 2.666z"/><path stroke-linejoin="round" stroke-linecap="round" stroke-width="2.4" d="M1.333 1.333h5.333l3.573 17.853a2.671 2.671 0 0 0 2.616 2.147l.054-.001h-.003H25.917a2.668 2.668 0 0 0 2.613-2.13l.003-.017 2.133-11.187H7.999"/></symbol><symbol id="icon-basket-default-dark" viewBox="0 0 32 32"><path fill="#fff" style="fill:var(--color2,#fff);stroke:var(--color2,#fff)" stroke="#fff" stroke-linejoin="round" stroke-linecap="round" stroke-width="2.667" d="M12 29.333a1.333 1.333 0 0 0 0-2.666v0a1.333 1.333 0 0 0 0 2.666v0zm14.667 0a1.333 1.333 0 0 0 0-2.666v0a1.333 1.333 0 0 0 0 2.666v0z"/><path fill="none" stroke="#fff" style="stroke:var(--color2,#fff)" stroke-linejoin="round" stroke-linecap="round" stroke-width="2.4" d="M1.333 1.333h5.333l3.573 17.853a2.671 2.671 0 0 0 2.616 2.147l.054-.001h-.003H25.917a2.668 2.668 0 0 0 2.613-2.13l.003-.017 2.133-11.187H7.999"/></symbol><symbol id="icon-basketHover" viewBox="0 0 32 32"><path fill="#9bb537" style="fill:var(--color3,#9bb537);stroke:var(--color3,#9bb537)" stroke="#9bb537" stroke-linejoin="round" stroke-linecap="round" stroke-width="2.667" d="M12 29.333a1.333 1.333 0 0 0 0-2.666v0a1.333 1.333 0 0 0 0 2.666v0zm14.667 0a1.333 1.333 0 0 0 0-2.666v0a1.333 1.333 0 0 0 0 2.666v0z"/><path fill="none" stroke="#9bb537" style="stroke:var(--color3,#9bb537)" stroke-linejoin="round" stroke-linecap="round" stroke-width="2.4" d="M1.333 1.333h5.333l3.573 17.853a2.671 2.671 0 0 0 2.616 2.147l.054-.001h-.003H25.917a2.668 2.668 0 0 0 2.613-2.13l.003-.017 2.133-11.187H7.999"/></symbol><symbol id="icon-close-btn" viewBox="0 0 32 32"><path stroke="#f8f8f8" style="stroke:var(--color1,#f8f8f8)" stroke-linejoin="round" stroke-linecap="round" stroke-width="2" d="M24 8 8 24M8 8l16 16"/></symbol><symbol id="icon-ellipsis" viewBox="0 0 104 32"><path d="M17.44 24.96c-3.2 0-5.864-1.016-8-3.04a10.524 10.524 0 0 1-3.041-7.414l.001-.111v.006c0-2.984 1.016-5.496 3.04-7.52 2.136-2.136 4.8-3.2 8-3.2s5.816 1.064 7.84 3.2c2.024 2.024 3.04 4.536 3.04 7.52 0 2.88-1.016 5.384-3.04 7.52-2.024 2.024-4.64 3.04-7.84 3.04zm34.688 0c-3.2 0-5.864-1.016-8-3.04a10.524 10.524 0 0 1-3.041-7.414l.001-.111v.006c0-2.984 1.016-5.496 3.04-7.52 2.136-2.136 4.8-3.2 8-3.2s5.816 1.064 7.84 3.2c2.024 2.024 3.04 4.536 3.04 7.52 0 2.88-1.016 5.384-3.04 7.52-2.024 2.024-4.64 3.04-7.84 3.04zm34.688 0c-3.2 0-5.872-1.016-8-3.04a10.524 10.524 0 0 1-3.041-7.414l.001-.111v.006c0-2.984 1.016-5.496 3.04-7.52 2.128-2.136 4.8-3.2 8-3.2s5.808 1.064 7.84 3.2c2.024 2.024 3.04 4.536 3.04 7.52 0 2.88-1.016 5.384-3.04 7.52-2.032 2.024-4.64 3.04-7.84 3.04z"/></symbol><symbol id="icon-menu-default" viewBox="0 0 32 32"><path stroke-linejoin="round" stroke-linecap="round" stroke-width="2" d="M28 13.333H4M28 8H4m24 10.667H4M28 24H4"/></symbol><symbol id="icon-menu-default-dark" viewBox="0 0 32 32"><path fill="none" stroke="#fff" style="stroke:var(--color2,#fff)" stroke-linejoin="round" stroke-linecap="round" stroke-width="2" d="M28 13.333H4M28 8H4m24 10.667H4M28 24H4"/></symbol><symbol id="icon-menu-hover" viewBox="0 0 32 32"><path fill="none" stroke="#9bb537" style="stroke:var(--color3,#9bb537)" stroke-linejoin="round" stroke-linecap="round" stroke-width="2" d="M28 13.333H4M28 8H4m24 10.667H4M28 24H4"/></symbol><symbol id="icon-switch" viewBox="0 0 49 32"><path fill="#cecdcd" style="fill:var(--color4,#cecdcd)" d="M11.52 6.4h16.64c3.535 0 6.4 2.865 6.4 6.4s-2.865 6.4-6.4 6.4H11.52c-3.535 0-6.4-2.865-6.4-6.4s2.865-6.4 6.4-6.4z"/></symbol><symbol id="icon-switch-active" viewBox="0 0 48 32"><path style="fill:var(--color5,#000)" d="M11.294 6.902h16.314a6.275 6.275 0 0 1 .001 12.549H11.295a6.274 6.274 0 0 1 0-12.548z"/><path fill="#f3f3f3" style="fill:var(--color6,#f3f3f3)" d="M33.506 13.176a5.898 5.898 0 1 1-11.797-.001 5.898 5.898 0 0 1 11.797.001z"/></symbol><symbol id="icon-search" viewBox="0 0 32 32"><path d="M28.948 27.054 24 22.147a11.926 11.926 0 0 0 2.639-7.508c0-6.627-5.373-12-12-12s-12 5.373-12 12 5.373 12 12 12c2.852 0 5.472-.995 7.531-2.657l-.023.018 4.907 4.907a1.333 1.333 0 0 0 1.894 0 1.33 1.33 0 0 0-.001-1.853zM14.667 24a9.333 9.333 0 1 1 0-18.666 9.333 9.333 0 1 1 0 18.666z" fill="#050505" fill-opacity=".5"/></symbol><symbol id="icon-x" viewBox="0 0 32 32"><path stroke-linejoin="round" stroke-linecap="round" stroke-width="3.556" d="M24 8 8 24M8 8l16 16"/></symbol><symbol id="icon-uparrow" viewBox="0 0 32 32"><path d="M16 32a3.692 3.692 0 0 1-3.692-3.692V3.693a3.692 3.692 0 0 1 7.384 0v24.615A3.692 3.692 0 0 1 16 32z"/><path d="M28.308 19.692a3.68 3.68 0 0 1-2.611-1.081L16 8.914l-9.697 9.697a3.693 3.693 0 0 1-5.222-5.222L13.388 1.082a3.691 3.691 0 0 1 5.221 0l12.308 12.307a3.693 3.693 0 0 1-2.611 6.303z"/></symbol><symbol id="icon-hear" viewBox="0 0 32 32"><path stroke-linejoin="round" stroke-linecap="round" stroke-width="2.909" d="M15.99 6.848C13.325 3.731 8.879 2.892 5.539 5.747c-3.34 2.854-3.811 7.625-1.187 11.001 2.182 2.806 8.781 8.724 10.944 10.64.241.214.364.321.503.364a.677.677 0 0 0 .386-.001l-.005.001c.143-.042.262-.15.505-.364 2.163-1.916 8.764-7.834 10.944-10.64 2.623-3.375 2.211-8.177-1.187-11.001-3.398-2.825-7.786-2.016-10.452 1.101z"/></symbol><symbol id="rate-star" viewBox="0 0 32 32"><path d="M15.357 1.219a.727.727 0 0 1 1.286 0l4.525 8.576a.727.727 0 0 0 .519.377l9.555 1.653c.576.1.805.804.398 1.223l-6.758 6.954a.728.728 0 0 0-.198.61l1.38 9.598a.727.727 0 0 1-1.041.756l-8.702-4.279a.731.731 0 0 0-.642 0l-8.702 4.279a.727.727 0 0 1-1.041-.756l1.38-9.598a.727.727 0 0 0-.198-.61L.36 13.048a.727.727 0 0 1 .398-1.224l9.555-1.653a.727.727 0 0 0 .519-.377l4.525-8.576z"/></symbol><symbol id="star" viewBox="0 0 14 14"><path d="M6.049 1.427c.3-.921 1.603-.921 1.902 0l.845 2.6a1 1 0 0 0 .951.692h2.735c.969 0 1.371 1.24.588 1.809l-2.213 1.607a1 1 0 0 0-.363 1.118l.845 2.601c.3.921-.755 1.688-1.539 1.118l-2.212-1.607a1 1 0 0 0-1.176 0L4.2 12.972c-.784.57-1.838-.197-1.539-1.118l.845-2.6a1 1 0 0 0-.363-1.119L.93 6.528c-.783-.57-.38-1.81.588-1.81h2.735a1 1 0 0 0 .95-.69l.846-2.6Z"/></symbol><symbol id="icon-arrowheadup" viewBox="0 0 32 32"><path d="M8.84 15.48 16 9.72l7.16 5.973c.226.189.519.304.839.307h.003c.411 0 .778-.186 1.023-.478l.002-.002a1.333 1.333 0 0 0-.171-1.879l-.002-.002-8-6.667a1.331 1.331 0 0 0-1.696.002L7.16 13.412a1.33 1.33 0 0 0-.198 1.882l-.002-.002a1.331 1.331 0 0 0 1.882.185l-.002.002z"/><path d="M16.853 16.307a1.331 1.331 0 0 0-1.696.002l-7.998 6.438a1.33 1.33 0 0 0-.198 1.882l-.002-.002a1.33 1.33 0 0 0 1.882.198l-.002.002 7.16-5.773 7.16 5.973c.226.189.519.304.839.307h.003c.411 0 .778-.186 1.023-.478l.002-.002a1.333 1.333 0 0 0-.171-1.879l-.002-.002z"/></symbol><symbol id="arrow" viewBox="0 0 32 32"><path d="M14.133 16.947a1.334 1.334 0 0 1 0-1.894l6.12-6.107a1.334 1.334 0 1 0-1.88-1.894l-6.12 6.12a4.001 4.001 0 0 0 0 5.654l6.12 6.12a1.336 1.336 0 0 0 1.88-1.894l-6.12-6.107z"/></symbol></defs></svg>